<?xml version="1.0" encoding="utf-8"?>
<svg viewBox="0 0 240.439 252.061" xmlns="http://www.w3.org/2000/svg">
  <defs/>
  <g fill="#333" transform="matrix(1, 0, 0, 1, 4.310653, 2.908753)">
    <path d="M 137.6 72.4 L 113.3 72.4 L 78.2 163.5 L 100.2 163.5 L 105.9 148 L 139.1 148 L 133.1 131 L 111.2 131 L 125.4 91.8 L 150.7 163.5 L 172.7 163.5 L 137.6 72.4 Z"/>
    <path d="M212.8 191.1c-1.7 0-3.2.8-4.1 2.1 0 0-4.4 5-6.7 7.4-10 10-21.6 17.8-34.5 23.3-13.4 5.7-27.6 8.5-42.3 8.5s-28.9-2.9-42.3-8.5c-12.9-5.5-24.6-13.3-34.5-23.3-10-10-17.8-21.6-23.3-34.5-5.7-13.4-8.5-27.6-8.5-42.3s2.9-28.9 8.5-42.3C30.5 68.6 38.3 56.9 48.3 47c10-10 21.6-17.8 34.5-23.3 13.4-5.7 27.6-8.5 42.3-8.5s28.9 2.9 42.3 8.5c9.4 4 18.1 9.2 26 15.6-.4 1.2-.7 2.6-.7 4 0 6.8 5.5 12.3 12.3 12.3s12.3-5.5 12.3-12.3S211.8 31 205 31c-1.7 0-3.3.3-4.7 1-20.5-16.8-46.6-26.9-75.2-26.9C59.6 5.1 6.5 58.2 6.5 123.8s53.1 118.7 118.7 118.7c36.7 0 69.4-16.6 91.2-42.8.9-.9 1.5-2.2 1.5-3.5-.1-2.8-2.4-5.1-5.1-5.1z"/>
  </g>
  <path d="M 912.911 292.509 L -59.689 292.509 L -59.689 -39.091 L 912.911 -39.091 L 912.911 292.509 Z" fill="none"/>
</svg>