<?xml version="1.0" encoding="utf-8"?>
<svg width="2500" height="2500" viewBox="0 0 143.973 192.756" xmlns="http://www.w3.org/2000/svg">
  <defs/>
  <g fill-rule="evenodd" clip-rule="evenodd">
    <path d="M 46.88 148.48 C 46.88 148.48 39.579 152.729 52.082 154.164 C 67.235 155.895 74.975 155.646 91.668 152.488 C 91.668 152.488 96.063 155.24 102.197 157.62 C 64.765 173.66 17.483 156.692 46.88 148.48 Z M 42.305 127.549 C 42.305 127.549 34.113 133.613 46.628 134.907 C 62.815 136.578 75.591 136.715 97.715 132.459 C 97.715 132.459 100.77 135.559 105.577 137.252 C 60.326 150.488 9.929 138.295 42.305 127.549 Z" fill="#3174b9" style=""/>
    <path d="M 80.86 92.04 C 90.088 102.662 78.441 112.215 78.441 112.215 C 78.441 112.215 101.861 100.127 91.104 84.986 C 81.062 70.871 73.358 63.86 115.057 39.679 C 115.055 39.677 49.602 56.02 80.86 92.04 Z" fill="#ca3132" style=""/>
    <path d="M 130.365 163.963 C 130.365 163.963 135.77 168.42 124.411 171.865 C 102.811 178.408 34.493 180.381 15.516 172.126 C 8.7 169.157 21.489 165.042 25.514 164.172 C 29.71 163.264 32.105 163.43 32.105 163.43 C 24.519 158.088 -16.929 173.922 11.055 178.464 C 87.362 190.837 150.155 172.894 130.365 163.963 Z M 50.393 105.861 C 50.393 105.861 15.647 114.116 38.091 117.117 C 47.571 118.384 66.453 118.092 84.056 116.616 C 98.439 115.409 112.874 112.827 112.874 112.827 C 112.874 112.827 107.807 115.001 104.136 117.504 C 68.845 126.787 0.681 122.463 20.307 112.974 C 36.899 104.947 50.393 105.861 50.393 105.861 Z M 112.73 140.7 C 148.6 122.065 132.015 104.153 120.437 106.566 C 117.606 107.158 116.335 107.668 116.335 107.668 C 116.335 107.668 117.392 106.016 119.399 105.306 C 142.302 97.257 159.913 129.051 112.014 141.643 C 112.013 141.643 112.565 141.145 112.73 140.7 Z" fill="#3174b9" style=""/>
    <path d="M 91.104 0.624 C 91.104 0.624 110.967 20.498 72.261 51.049 C 41.221 75.566 65.185 89.541 72.252 105.514 C 54.129 89.166 40.837 74.773 49.754 61.381 C 62.845 41.723 99.119 32.189 91.104 0.624 Z" fill="#ca3132" style=""/>
    <path d="M 53.922 191.215 C 88.348 193.417 141.224 189.992 142.479 173.699 C 142.479 173.699 140.071 179.876 114.024 184.774 C 84.637 190.307 48.386 189.662 26.891 186.115 C 26.891 186.115 31.296 189.76 53.922 191.215 Z" fill="#3174b9" style=""/>
  </g>
</svg>