<?xml version="1.0" encoding="UTF-8" standalone="no"?>
<!DOCTYPE svg PUBLIC "-//W3C//DTD SVG 1.1//EN" "http://www.w3.org/Graphics/SVG/1.1/DTD/svg11.dtd">
<svg xmlns="http://www.w3.org/2000/svg" version="1.1" viewBox="0.00 0.00 84.00 85.00">
<path stroke="#808080" stroke-width="2.00" fill="none" stroke-linecap="butt" vector-effect="non-scaling-stroke" d="
  M 40.73 49.06
  C 40.85 43.60 44.65 40.38 49.76 40.41
  Q 54.28 40.42 56.95 40.37
  C 63.19 40.24 68.78 37.52 71.75 32.27
  Q 75.13 26.33 73.78 20.45
  Q 71.67 11.28 62.57 8.17
  C 54.18 5.31 44.14 10.00 41.62 18.63
  Q 41.41 19.37 39.93 24.74
  Q 38.07 31.50 31.93 35.92
  Q 23.81 41.76 14.15 39.84
  C 11.86 39.39 9.92 38.40 7.90 37.82
  A 0.61 0.60 -82.1 0 0 7.13 38.41
  L 7.13 73.06
  Q 7.13 73.50 7.56 73.50
  L 40.20 73.50
  Q 40.68 73.50 40.67 73.02
  Q 40.49 59.68 40.73 49.06"
/>
<path fill="#ffffff" d="
  M 84.00 0.00
  L 84.00 85.00
  L 0.00 85.00
  L 0.00 0.00
  L 84.00 0.00
  Z
  M 40.73 49.06
  C 40.85 43.60 44.65 40.38 49.76 40.41
  Q 54.28 40.42 56.95 40.37
  C 63.19 40.24 68.78 37.52 71.75 32.27
  Q 75.13 26.33 73.78 20.45
  Q 71.67 11.28 62.57 8.17
  C 54.18 5.31 44.14 10.00 41.62 18.63
  Q 41.41 19.37 39.93 24.74
  Q 38.07 31.50 31.93 35.92
  Q 23.81 41.76 14.15 39.84
  C 11.86 39.39 9.92 38.40 7.90 37.82
  A 0.61 0.60 -82.1 0 0 7.13 38.41
  L 7.13 73.06
  Q 7.13 73.50 7.56 73.50
  L 40.20 73.50
  Q 40.68 73.50 40.67 73.02
  Q 40.49 59.68 40.73 49.06
  Z"
/>
<path fill="#000000" d="
  M 49.76 40.41
  C 44.65 40.38 40.85 43.60 40.73 49.06
  Q 40.49 59.68 40.67 73.02
  Q 40.68 73.50 40.20 73.50
  L 7.56 73.50
  Q 7.13 73.50 7.13 73.06
  L 7.13 38.41
  A 0.61 0.60 -82.1 0 1 7.90 37.82
  C 9.92 38.40 11.86 39.39 14.15 39.84
  Q 23.81 41.76 31.93 35.92
  Q 38.07 31.50 39.93 24.74
  Q 41.41 19.37 41.62 18.63
  C 44.14 10.00 54.18 5.31 62.57 8.17
  Q 71.67 11.28 73.78 20.45
  Q 75.13 26.33 71.75 32.27
  C 68.78 37.52 63.19 40.24 56.95 40.37
  Q 54.28 40.42 49.76 40.41
  Z"
/>
</svg>
