<?xml version="1.0" encoding="utf-8"?>
<svg width="800px" height="800px" viewBox="0 0 32 24.713" version="1.1" xmlns="http://www.w3.org/2000/svg">
  <defs/>
  <path fill="#444444" d="M 22.163 19.213 C 22.25 19.219 22.343 19.23 22.437 19.23 C 23.759 19.231 25.083 19.223 26.406 19.236 C 26.695 19.239 26.782 19.14 26.767 18.863 C 26.748 18.501 26.763 18.139 26.763 17.692 C 28.264 18.796 29.715 19.863 31.204 20.959 C 29.726 22.048 28.275 23.116 26.763 24.23 C 26.763 23.809 26.763 23.461 26.763 23.113 C 26.763 22.664 26.763 22.662 26.326 22.662 C 17.87 22.662 9.413 22.662 0.957 22.662 C 0.548 22.662 0.548 22.662 0.548 22.251 C 0.548 21.359 0.56 20.467 0.541 19.576 C 0.534 19.286 0.628 19.221 0.905 19.223 C 5.452 19.231 9.999 19.238 14.545 19.225 C 16.876 19.219 18.716 18.254 19.933 16.245 C 22.128 12.617 19.839 7.866 15.632 7.254 C 12.384 6.782 9.364 8.962 8.813 12.267 C 8.755 12.61 8.751 12.964 8.717 13.378 C 9.249 13.306 9.731 13.24 10.276 13.167 C 9.422 14.818 8.598 16.413 7.761 18.029 C 6.479 16.708 5.216 15.407 3.982 14.135 C 4.292 14.083 4.703 14.024 5.111 13.938 C 5.188 13.922 5.302 13.798 5.299 13.726 C 5.276 12.861 5.336 12.005 5.505 11.157 C 5.51 11.131 5.498 11.101 5.49 11.051 C 4.664 10.91 3.898 10.613 3.204 10.133 C 1.506 8.958 0.618 6.772 1.035 4.78 C 1.489 2.609 3.126 0.986 5.243 0.585 C 6.616 0.327 7.888 0.573 9.07 1.298 C 9.279 1.427 9.406 1.446 9.543 1.223 C 9.622 1.091 9.743 0.986 9.881 0.826 C 10.053 1.519 10.214 2.167 10.374 2.816 C 10.428 3.034 10.47 3.256 10.533 3.471 C 10.602 3.704 10.532 3.808 10.286 3.792 C 9.574 3.743 8.86 3.7 8.148 3.652 C 7.972 3.64 7.798 3.621 7.572 3.6 C 7.748 3.378 7.907 3.179 8.082 2.961 C 7.698 2.668 7.274 2.522 6.833 2.45 C 4.699 2.101 2.819 3.74 2.863 5.899 C 2.895 7.556 4.292 9.037 5.942 9.178 C 6.156 9.195 6.23 9.087 6.313 8.927 C 7.482 6.683 9.243 5.097 11.639 4.271 C 17.182 2.36 22.969 5.784 24.037 11.389 C 24.563 14.149 23.964 16.67 22.289 18.929 C 22.243 18.991 22.201 19.058 22.161 19.124 C 22.153 19.136 22.163 19.16 22.17 19.212 L 22.163 19.213 Z" style=""/>
</svg>