<?xml version="1.0" encoding="UTF-8" standalone="no"?>
<!DOCTYPE svg PUBLIC "-//W3C//DTD SVG 1.1//EN" "http://www.w3.org/Graphics/SVG/1.1/DTD/svg11.dtd">
<svg xmlns="http://www.w3.org/2000/svg" version="1.1" viewBox="0.00 0.00 182.00 178.00">
<g stroke-width="2.00" fill="none" stroke-linecap="butt">
<path stroke="#dfb0d3" vector-effect="non-scaling-stroke" d="
  M 146.26 6.71
  L 141.91 6.72
  A 1.14 1.13 4.8 0 0 140.79 7.66
  Q 139.92 12.73 138.66 19.03
  C 138.31 20.74 138.48 22.65 138.30 23.92
  Q 138.03 25.76 138.84 27.47
  Q 140.01 29.92 142.31 31.61"
/>
<path stroke="#ecc1e1" vector-effect="non-scaling-stroke" d="
  M 142.31 31.61
  L 142.92 32.11"
/>
<path stroke="#f9cdf1" vector-effect="non-scaling-stroke" d="
  M 142.92 32.11
  L 148.29 35.16"
/>
<path stroke="#ecc1e1" vector-effect="non-scaling-stroke" d="
  M 148.29 35.16
  Q 143.54 56.66 138.57 77.88
  Q 138.17 79.57 137.38 80.84
  Q 136.52 82.22 135.54 83.48"
/>
<path stroke="#cdaec2" vector-effect="non-scaling-stroke" d="
  M 135.54 83.48
  Q 130.80 87.91 129.80 94.31"
/>
<path stroke="#ecc1e1" vector-effect="non-scaling-stroke" d="
  M 129.80 94.31
  Q 129.34 94.95 129.32 96.79"
/>
<path stroke="#f9cdf1" vector-effect="non-scaling-stroke" d="
  M 129.32 96.79
  Q 129.29 98.18 128.45 99.39"
/>
<path stroke="#ecc1e1" vector-effect="non-scaling-stroke" d="
  M 128.45 99.39
  L 127.75 99.94"
/>
<path stroke="#cdaec2" vector-effect="non-scaling-stroke" d="
  M 127.75 99.94
  Q 122.15 102.28 117.42 106.11
  A 0.42 0.42 0.0 0 1 116.76 105.92
  L 116.64 105.60"
/>
<path stroke="#deb485" vector-effect="non-scaling-stroke" d="
  M 116.64 105.60
  Q 121.02 98.12 117.23 90.88"
/>
<path stroke="#bd9fb3" vector-effect="non-scaling-stroke" d="
  M 117.23 90.88
  Q 123.12 84.69 125.32 76.42"
/>
<path stroke="#c7a2be" vector-effect="non-scaling-stroke" d="
  M 125.32 76.42
  Q 125.92 75.81 125.86 74.02"
/>
<path stroke="#dfb0d3" vector-effect="non-scaling-stroke" d="
  M 125.86 74.02
  L 125.87 70.09"
/>
<path stroke="#ecc1e1" vector-effect="non-scaling-stroke" d="
  M 125.87 70.09
  Q 125.94 70.01 125.75 69.73"
/>
<path stroke="#f4d5f2" vector-effect="non-scaling-stroke" d="
  M 125.75 69.73
  C 124.75 65.59 119.08 66.15 116.31 67.70"
/>
<path stroke="#ecc1e1" vector-effect="non-scaling-stroke" d="
  M 116.31 67.70
  L 113.25 69.09"
/>
<path stroke="#dfb0d3" vector-effect="non-scaling-stroke" d="
  M 113.25 69.09
  Q 104.95 73.80 97.61 79.85
  Q 95.27 81.78 86.66 89.47"
/>
<path stroke="#fee39c" vector-effect="non-scaling-stroke" d="
  M 86.66 89.47
  Q 85.73 89.81 85.45 89.58"
/>
<path stroke="#deb485" vector-effect="non-scaling-stroke" d="
  M 85.45 89.58
  Q 86.15 87.22 85.75 84.99
  Q 85.40 83.01 84.77 80.95"
/>
<path stroke="#a7969e" vector-effect="non-scaling-stroke" d="
  M 84.77 80.95
  Q 89.03 76.01 91.59 70.24"
/>
<path stroke="#bd9fb3" vector-effect="non-scaling-stroke" d="
  M 91.59 70.24
  Q 92.70 67.83 92.72 65.31"
/>
<path stroke="#c7a2be" vector-effect="non-scaling-stroke" d="
  M 92.72 65.31
  Q 92.85 64.33 92.70 63.70"
/>
<path stroke="#cdaec2" vector-effect="non-scaling-stroke" d="
  M 92.70 63.70
  Q 92.88 62.94 92.70 62.20"
/>
<path stroke="#dfb0d3" vector-effect="non-scaling-stroke" d="
  M 92.70 62.20
  Q 92.72 61.41 92.47 60.74"
/>
<path stroke="#ecc1e1" vector-effect="non-scaling-stroke" d="
  M 92.47 60.74
  Q 92.40 60.08 91.92 59.46"
/>
<path stroke="#f4d5f2" vector-effect="non-scaling-stroke" d="
  M 91.92 59.46
  L 91.01 58.11"
/>
<path stroke="#f5dff5" vector-effect="non-scaling-stroke" d="
  M 91.01 58.11
  Q 89.54 56.52 86.70 57.33"
/>
<path stroke="#f4d5f2" vector-effect="non-scaling-stroke" d="
  M 86.70 57.33
  Q 85.03 57.12 84.09 57.69"
/>
<path stroke="#ecc1e1" vector-effect="non-scaling-stroke" d="
  M 84.09 57.69
  Q 79.57 59.14 75.76 62.00"
/>
<path stroke="#d7b4ca" vector-effect="non-scaling-stroke" d="
  M 75.76 62.00
  Q 66.01 68.43 58.26 76.19"
/>
<path stroke="#ffeaac" vector-effect="non-scaling-stroke" d="
  M 58.26 76.19
  Q 52.76 78.93 48.26 83.75"
/>
<path stroke="#f7d78f" vector-effect="non-scaling-stroke" d="
  M 48.26 83.75
  Q 28.69 100.17 9.25 116.75
  Q 8.60 117.30 9.05 119.34"
/>
<path stroke="#ffeaac" vector-effect="non-scaling-stroke" d="
  M 9.05 119.34
  L 8.99 133.20"
/>
<path stroke="#fee39c" vector-effect="non-scaling-stroke" d="
  M 8.99 133.20
  L 9.01 147.59"
/>
<path stroke="#f7d78f" vector-effect="non-scaling-stroke" d="
  M 9.01 147.59
  L 8.94 155.96"
/>
<path stroke="#deb485" vector-effect="non-scaling-stroke" d="
  M 8.94 155.96
  L 9.07 158.18"
/>
<path stroke="#fee39c" vector-effect="non-scaling-stroke" d="
  M 9.07 158.18
  L 9.01 167.24
  Q 9.01 167.77 9.53 167.77
  L 25.99 167.81"
/>
<path stroke="#f7d78f" vector-effect="non-scaling-stroke" d="
  M 25.99 167.81
  L 39.79 167.89"
/>
<path stroke="#f0cb84" vector-effect="non-scaling-stroke" d="
  M 39.79 167.89
  L 48.21 167.91"
/>
<path stroke="#f7d78f" vector-effect="non-scaling-stroke" d="
  M 48.21 167.91
  L 53.96 167.84"
/>
<path stroke="#fee39c" vector-effect="non-scaling-stroke" d="
  M 53.96 167.84
  Q 54.46 167.79 55.02 167.94"
/>
<path stroke="#ffeaac" vector-effect="non-scaling-stroke" d="
  M 55.02 167.94
  L 94.28 167.93"
/>
<path stroke="#fee39c" vector-effect="non-scaling-stroke" d="
  M 94.28 167.93
  L 104.59 167.88"
/>
<path stroke="#f0cb84" vector-effect="non-scaling-stroke" d="
  M 104.59 167.88
  L 106.73 167.89
  Q 107.24 167.89 107.62 167.54
  Q 116.48 159.09 123.67 149.21
  Q 129.98 140.53 131.63 131.96
  Q 132.42 127.84 130.28 122.64"
/>
<path stroke="#a7969e" vector-effect="non-scaling-stroke" d="
  M 130.28 122.64
  Q 131.75 120.75 133.29 118.53
  Q 136.51 113.86 138.21 108.61"
/>
<path stroke="#bd9fb3" vector-effect="non-scaling-stroke" d="
  M 138.21 108.61
  L 138.67 103.97"
/>
<path stroke="#a7969e" vector-effect="non-scaling-stroke" d="
  M 138.67 103.97
  C 142.06 100.18 144.90 97.36 146.15 93.01"
/>
<path stroke="#bd9fb3" vector-effect="non-scaling-stroke" d="
  M 146.15 93.01
  Q 147.61 87.45 146.18 81.82
  Q 146.06 81.32 146.30 80.87
  C 146.90 79.75 147.61 78.91 147.99 77.60
  Q 153.72 57.58 159.15 37.57"
/>
<path stroke="#cdaec2" vector-effect="non-scaling-stroke" d="
  M 159.15 37.57
  L 165.29 37.12"
/>
<path stroke="#c7a2be" vector-effect="non-scaling-stroke" d="
  M 165.29 37.12
  Q 167.49 37.02 169.05 36.03
  Q 169.48 35.76 169.48 35.25
  L 169.28 21.73"
/>
<path stroke="#cdaec2" vector-effect="non-scaling-stroke" d="
  M 169.28 21.73
  L 169.59 8.20"
/>
<path stroke="#d7b4ca" vector-effect="non-scaling-stroke" d="
  M 169.59 8.20
  Q 169.71 7.74 169.62 7.38
  Q 169.49 6.83 168.93 6.82
  L 167.23 6.79"
/>
<path stroke="#ecc1e1" vector-effect="non-scaling-stroke" d="
  M 167.23 6.79
  L 157.91 6.62"
/>
<path stroke="#f9cdf1" vector-effect="non-scaling-stroke" d="
  M 157.91 6.62
  L 146.26 6.71"
/>
<path stroke="#e68ed3" vector-effect="non-scaling-stroke" d="
  M 157.91 6.62
  Q 156.17 15.52 154.20 24.47
  C 153.25 28.80 152.25 33.30 148.29 35.16"
/>
<path stroke="#e68ed3" vector-effect="non-scaling-stroke" d="
  M 142.92 32.11
  Q 143.76 32.42 144.53 32.37
  Q 145.04 32.34 145.16 31.84
  Q 146.44 26.32 148.30 15.22
  Q 149.10 10.46 147.19 6.85"
/>
<path stroke="#d87dc4" vector-effect="non-scaling-stroke" d="
  M 147.19 6.85
  Q 146.70 6.95 146.26 6.71"
/>
<path stroke="#c476ac" vector-effect="non-scaling-stroke" d="
  M 167.23 6.79
  L 160.78 6.99
  Q 160.25 7.01 160.13 7.52
  L 157.35 19.22"
/>
<path stroke="#cc71b5" vector-effect="non-scaling-stroke" d="
  M 157.35 19.22
  Q 154.66 28.47 152.74 37.87
  Q 149.97 51.49 148.70 56.61
  Q 144.84 72.14 143.65 77.29
  Q 142.41 82.66 141.43 85.03
  C 138.49 92.18 135.07 98.64 130.95 105.23
  Q 129.32 107.84 127.03 109.96"
/>
<path stroke="#c476ac" vector-effect="non-scaling-stroke" d="
  M 127.03 109.96
  Q 126.68 110.19 126.21 110.24"
/>
<path stroke="#e68ed3" vector-effect="non-scaling-stroke" d="
  M 126.21 110.24
  Q 128.42 107.75 129.41 106.18
  Q 134.86 97.48 139.19 87.97
  Q 141.14 83.70 142.16 78.38
  Q 144.69 65.18 149.42 47.35
  Q 150.63 42.80 150.11 38.45
  Q 149.94 36.99 149.56 38.40
  Q 146.80 48.61 145.14 56.76
  Q 142.94 67.52 140.97 74.67
  Q 140.41 76.68 140.29 77.37
  Q 140.03 78.93 139.44 79.94
  Q 134.73 88.00 130.20 97.74
  A 0.44 0.43 47.6 0 1 129.40 97.70
  Q 129.29 97.42 129.32 96.79"
/>
<path stroke="#ba6fa4" vector-effect="non-scaling-stroke" d="
  M 129.80 94.31
  Q 131.42 93.77 132.12 91.63
  Q 132.89 89.30 133.38 88.50
  Q 134.78 86.22 136.33 84.01
  A 0.32 0.32 0.0 0 0 136.09 83.51
  L 135.54 83.48"
/>
<path stroke="#cc71b5" vector-effect="non-scaling-stroke" d="
  M 147.19 6.85
  Q 146.78 12.62 145.32 21.83
  Q 144.43 27.47 142.31 31.61"
/>
<path stroke="#a4638d" vector-effect="non-scaling-stroke" d="
  M 169.59 8.20
  Q 169.22 6.93 167.51 7.34
  A 1.51 1.50 1.6 0 0 166.41 8.37
  L 158.03 36.23
  Q 157.86 36.79 157.31 36.59
  Q 156.52 36.30 155.79 36.39
  Q 155.27 36.46 155.13 36.97
  Q 151.43 50.88 148.00 65.98
  Q 146.83 71.12 143.65 80.84"
/>
<path stroke="#b6659e" vector-effect="non-scaling-stroke" d="
  M 143.65 80.84
  Q 146.91 67.14 150.29 53.47
  Q 151.81 47.33 153.29 39.36
  Q 154.62 32.27 156.18 25.23
  Q 156.84 22.23 157.35 19.22"
/>
<path stroke="#a75291" vector-effect="non-scaling-stroke" d="
  M 131.78 107.93
  L 127.79 110.02"
/>
<path stroke="#b6659e" vector-effect="non-scaling-stroke" d="
  M 127.79 110.02
  Q 127.46 109.92 127.03 109.96"
/>
<path stroke="#ce8c5a" vector-effect="non-scaling-stroke" d="
  M 106.05 138.44
  L 105.00 138.22"
/>
<path stroke="#d082bc" vector-effect="non-scaling-stroke" d="
  M 126.21 110.24
  L 124.28 110.88"
/>
<path stroke="#d87dc4" vector-effect="non-scaling-stroke" d="
  M 124.28 110.88
  L 123.13 110.90
  Q 122.54 110.90 122.70 110.33
  Q 122.83 109.86 123.29 109.48"
/>
<path stroke="#e68ed3" vector-effect="non-scaling-stroke" d="
  M 123.29 109.48
  Q 128.44 106.10 128.99 99.99
  Q 129.01 99.72 128.88 99.59
  Q 128.72 99.44 128.45 99.39"
/>
<path stroke="#955080" vector-effect="non-scaling-stroke" d="
  M 169.28 21.73
  Q 166.16 25.94 165.35 32.30
  Q 165.02 34.97 165.29 37.12"
/>
<path stroke="#8b4e76" vector-effect="non-scaling-stroke" d="
  M 159.15 37.57
  Q 157.64 37.14 156.01 37.25
  Q 155.47 37.29 155.45 37.83
  C 155.38 39.60 155.20 41.69 154.85 43.20
  Q 152.00 55.37 148.42 67.85
  Q 146.46 74.72 145.38 81.72
  Q 144.31 88.68 142.48 93.10
  Q 139.16 101.14 133.02 107.27"
/>
<path stroke="#955080" vector-effect="non-scaling-stroke" d="
  M 133.02 107.27
  Q 132.29 107.40 131.78 107.93"
/>
<path stroke="#ac5e95" vector-effect="non-scaling-stroke" d="
  M 131.78 107.93
  Q 139.23 98.17 143.09 87.93
  Q 144.25 84.87 143.65 80.84"
/>
<path stroke="#6f385d" vector-effect="non-scaling-stroke" d="
  M 136.97 108.46
  Q 135.46 112.36 133.52 115.26
  Q 128.37 122.99 120.76 130.50
  Q 119.09 132.15 117.31 133.15
  Q 115.50 134.16 113.65 135.40
  Q 110.33 137.64 106.23 138.32"
/>
<path stroke="#9f5789" vector-effect="non-scaling-stroke" d="
  M 106.23 138.32
  Q 115.19 130.36 123.40 121.89
  Q 126.49 118.70 129.21 114.83
  Q 130.22 113.40 130.52 112.07
  Q 130.65 111.53 130.26 111.15
  Q 129.29 110.18 127.79 110.02"
/>
<path stroke="#b6659e" vector-effect="non-scaling-stroke" d="
  M 124.28 110.88
  Q 123.63 110.98 123.32 111.21
  Q 122.82 111.57 123.37 111.85
  C 125.95 113.16 125.94 115.39 124.26 117.57
  Q 118.62 124.91 116.10 127.34
  Q 110.50 132.72 105.00 138.22"
/>
<path stroke="#d68762" vector-effect="non-scaling-stroke" d="
  M 105.00 138.22
  Q 103.94 138.26 103.21 137.52"
/>
<path stroke="#cc71b5" vector-effect="non-scaling-stroke" d="
  M 103.21 137.52
  Q 105.75 134.58 112.61 127.81
  Q 115.46 124.99 122.21 117.24
  Q 124.44 114.68 121.44 112.37"
/>
<path stroke="#f6ba2b" vector-effect="non-scaling-stroke" d="
  M 116.53 135.64
  Q 112.91 138.05 108.72 139.50
  Q 107.37 139.97 105.78 139.64
  Q 103.90 139.25 102.77 139.18"
/>
<path stroke="#f7c23c" vector-effect="non-scaling-stroke" d="
  M 102.77 139.18
  Q 98.29 136.29 95.86 133.17
  A 1.60 1.60 0.0 0 0 93.67 132.86
  Q 86.88 137.73 80.36 143.62
  Q 74.13 149.25 67.96 154.95"
/>
<path stroke="#f6ba2b" vector-effect="non-scaling-stroke" d="
  M 67.96 154.95
  Q 59.28 162.34 57.06 164.32
  Q 55.73 165.50 53.96 167.84"
/>
<path stroke="#c37710" vector-effect="non-scaling-stroke" d="
  M 48.38 167.99
  Q 50.49 167.61 52.15 166.01
  Q 54.45 163.80 54.55 163.71
  Q 75.64 146.82 94.36 127.37"
/>
<path stroke="#986223" vector-effect="non-scaling-stroke" d="
  M 130.28 122.64
  L 123.94 129.68"
/>
<path stroke="#a6793b" vector-effect="non-scaling-stroke" d="
  M 123.94 129.68
  L 116.53 135.64"
/>
<path stroke="#9f6d2e" vector-effect="non-scaling-stroke" d="
  M 116.53 135.64
  Q 115.27 135.36 114.79 135.98
  Q 114.50 136.36 114.05 136.50
  Q 112.30 137.03 110.81 138.07
  Q 109.57 138.93 106.05 138.44"
/>
<path stroke="#7f4b69" vector-effect="non-scaling-stroke" d="
  M 106.05 138.44
  Q 106.14 138.38 106.23 138.32"
/>
<path stroke="#cc71b5" vector-effect="non-scaling-stroke" d="
  M 123.29 109.48
  Q 123.25 108.86 122.44 108.89"
/>
<path stroke="#e196d4" vector-effect="non-scaling-stroke" d="
  M 122.44 108.89
  Q 125.30 106.78 126.85 103.65
  Q 126.93 103.48 126.83 103.32
  Q 126.73 103.18 126.57 103.12
  Q 126.32 103.03 126.12 103.21
  C 122.10 106.94 116.24 111.07 112.03 114.87
  Q 108.74 117.84 106.08 120.58
  Q 101.62 125.20 96.95 128.41
  Q 96.54 128.70 96.44 129.19
  Q 96.23 130.20 96.73 131.46"
/>
<path stroke="#e49871" vector-effect="non-scaling-stroke" d="
  M 96.73 131.46
  Q 95.42 129.22 96.37 127.22"
/>
<path stroke="#ba6fa4" vector-effect="non-scaling-stroke" d="
  M 96.37 127.22
  Q 99.38 124.94 102.34 122.61
  Q 103.26 121.89 104.26 120.58
  Q 105.12 119.45 106.15 118.48
  Q 108.99 115.82 109.06 115.74
  Q 110.73 113.83 116.83 108.56
  Q 122.84 103.37 128.29 100.56
  Q 128.94 100.23 128.23 100.06
  L 127.75 99.94"
/>
<path stroke="#653652" vector-effect="non-scaling-stroke" d="
  M 146.15 93.01
  L 145.89 86.93
  Q 145.82 85.26 145.53 86.90
  C 144.50 92.70 141.39 98.38 137.67 103.62
  Q 137.58 103.74 137.60 103.89
  Q 137.63 104.15 137.74 104.21
  A 0.36 0.35 38.8 0 0 138.13 104.17
  Q 138.40 103.94 138.67 103.97"
/>
<path stroke="#653652" vector-effect="non-scaling-stroke" d="
  M 138.21 108.61
  L 137.96 108.10
  Q 137.63 107.45 137.23 108.06
  L 136.97 108.46"
/>
<path stroke="#854272" vector-effect="non-scaling-stroke" d="
  M 136.97 108.46
  L 137.12 106.64
  A 0.43 0.43 0.0 0 0 136.45 106.25
  Q 134.49 107.53 132.51 108.88
  Q 132.21 109.09 131.99 108.94
  Q 131.57 108.65 131.94 108.30
  L 133.02 107.27"
/>
<path stroke="#d385c6" vector-effect="non-scaling-stroke" d="
  M 122.44 108.89
  L 119.39 110.90
  A 0.67 0.67 0.0 0 0 119.52 112.09
  Q 120.30 112.39 121.44 112.37"
/>
<path stroke="#e196d4" vector-effect="non-scaling-stroke" d="
  M 121.44 112.37
  Q 120.11 115.48 117.67 117.94
  Q 115.12 120.51 112.31 122.79
  Q 105.26 128.52 99.31 135.35"
/>
<path stroke="#ebac82" vector-effect="non-scaling-stroke" d="
  M 99.31 135.35
  Q 97.26 133.67 96.73 131.46"
/>
<path stroke="#e49871" vector-effect="non-scaling-stroke" d="
  M 103.21 137.52
  Q 100.77 137.19 99.31 135.35"
/>
<path stroke="#fece49" vector-effect="non-scaling-stroke" d="
  M 55.02 167.94
  Q 62.02 162.05 67.96 154.95"
/>
<path stroke="#c48551" vector-effect="non-scaling-stroke" d="
  M 96.37 127.22
  Q 96.32 126.78 96.39 126.48"
/>
<path stroke="#8b4e76" vector-effect="non-scaling-stroke" d="
  M 97.20 125.24
  C 98.03 124.49 98.29 123.41 99.01 122.64
  Q 106.81 114.24 115.05 108.27
  Q 116.27 107.39 116.23 106.03"
/>
<path stroke="#bd6b06" vector-effect="non-scaling-stroke" d="
  M 92.97 126.45
  Q 85.45 134.70 77.16 142.16
  Q 63.23 154.68 48.58 166.35
  Q 48.18 166.67 48.38 167.99"
/>
<path stroke="#e8a314" vector-effect="non-scaling-stroke" d="
  M 48.38 167.99
  Q 48.29 167.95 48.21 167.91"
/>
<path stroke="#e8a314" vector-effect="non-scaling-stroke" d="
  M 39.79 167.89
  Q 41.74 164.80 43.79 163.67
  Q 49.73 160.39 53.36 157.35
  Q 59.96 151.83 66.54 146.28
  Q 73.38 140.51 87.90 122.64
  Q 91.26 118.52 93.60 117.31
  Q 100.86 113.57 105.62 107.44
  Q 106.08 106.84 105.90 106.37
  Q 105.68 105.77 105.12 106.09
  L 102.96 107.35
  Q 102.88 107.39 102.79 107.36
  L 102.53 107.29
  A 0.24 0.24 0.0 0 1 102.48 106.86
  Q 107.66 103.87 110.31 98.73"
/>
<path stroke="#fece49" vector-effect="non-scaling-stroke" d="
  M 94.28 167.93
  Q 95.60 164.53 96.14 163.71
  Q 100.82 156.63 102.54 153.32
  Q 107.01 144.70 102.77 139.18"
/>
<path stroke="#ab6348" vector-effect="non-scaling-stroke" d="
  M 116.64 105.60
  Q 116.59 105.87 116.23 106.03"
/>
<path stroke="#9c5439" vector-effect="non-scaling-stroke" d="
  M 116.23 106.03
  Q 112.36 109.30 108.45 112.52
  Q 107.20 113.56 106.98 113.86
  Q 106.38 114.72 105.55 115.25
  Q 104.45 115.96 103.28 117.13
  Q 100.87 119.54 97.93 122.28
  Q 97.29 122.88 97.13 123.60
  Q 96.94 124.50 97.20 125.24"
/>
<path stroke="#ab6348" vector-effect="non-scaling-stroke" d="
  M 97.20 125.24
  L 96.39 126.48"
/>
<path stroke="#d58c15" vector-effect="non-scaling-stroke" d="
  M 96.39 126.48
  Q 95.51 125.46 94.36 127.37"
/>
<path stroke="#aa5407" vector-effect="non-scaling-stroke" d="
  M 94.36 127.37
  Q 93.70 126.68 92.97 126.45"
/>
<path stroke="#cf800a" vector-effect="non-scaling-stroke" d="
  M 92.97 126.45
  Q 95.28 121.64 96.75 120.25
  C 102.85 114.52 109.18 108.91 114.22 102.21
  Q 117.73 97.54 116.21 92.32"
/>
<path stroke="#efaf21" vector-effect="non-scaling-stroke" d="
  M 104.59 167.88
  Q 110.07 158.62 116.95 150.58
  Q 119.92 147.10 120.82 145.35
  C 123.22 140.72 123.57 134.89 123.94 129.68"
/>
<path stroke="#9c5439" vector-effect="non-scaling-stroke" d="
  M 117.23 90.88
  L 116.21 92.32"
/>
<path stroke="#ae6b38" vector-effect="non-scaling-stroke" d="
  M 116.21 92.32
  L 110.31 98.73"
/>
<path stroke="#b57743" vector-effect="non-scaling-stroke" d="
  M 110.31 98.73
  Q 105.13 103.16 102.98 104.72
  Q 100.71 106.37 97.36 107.75"
/>
<path stroke="#bc8350" vector-effect="non-scaling-stroke" d="
  M 97.36 107.75
  Q 93.94 108.79 91.14 107.90"
/>
<path stroke="#f6ba2b" vector-effect="non-scaling-stroke" d="
  M 97.36 107.75
  Q 98.05 108.69 96.26 108.35
  Q 96.10 108.32 96.06 108.48
  L 95.97 108.76
  A 0.09 0.09 0.0 0 0 96.06 108.88
  Q 97.60 108.77 98.71 109.30
  Q 99.17 109.52 99.58 109.21
  Q 100.00 108.88 100.61 108.85
  Q 101.18 108.82 100.86 109.30
  Q 99.01 112.03 97.83 112.58
  C 93.73 114.49 90.75 115.63 88.84 118.52
  Q 87.11 121.15 80.99 128.00
  Q 79.73 129.41 75.39 135.39
  Q 73.25 138.34 68.02 142.73
  Q 64.18 145.95 59.57 148.70
  C 52.76 152.75 46.64 156.82 39.36 159.87
  C 34.51 161.90 29.17 163.23 25.99 167.81"
/>
<path stroke="#fece49" vector-effect="non-scaling-stroke" d="
  M 40.97 129.98
  Q 36.18 135.29 31.73 140.80
  Q 27.50 146.02 25.80 147.54
  Q 21.25 151.62 21.36 157.21
  Q 21.39 158.69 22.63 157.88
  Q 25.07 156.27 31.07 152.65
  C 38.72 148.02 45.97 142.86 52.80 138.74
  C 62.92 132.64 72.87 124.62 79.98 117.74
  Q 84.11 113.75 84.69 107.61
  Q 84.74 107.09 84.49 106.70
  L 80.40 100.54
  Q 79.90 99.78 79.14 100.21
  Q 73.45 103.43 68.10 107.43
  Q 67.24 108.07 59.22 114.92
  Q 54.78 118.71 49.95 121.98"
/>
<path stroke="#854272" vector-effect="non-scaling-stroke" d="
  M 125.32 76.42
  Q 116.10 89.14 101.61 102.10
  Q 96.54 106.63 91.31 107.26"
/>
<path stroke="#a75291" vector-effect="non-scaling-stroke" d="
  M 125.86 74.02
  Q 124.75 73.24 123.70 74.42
  Q 111.51 88.15 108.03 91.53
  Q 99.84 99.50 91.31 107.26"
/>
<path stroke="#9d5087" vector-effect="non-scaling-stroke" d="
  M 91.31 107.26
  Q 91.35 107.40 91.14 107.90"
/>
<path stroke="#de936f" vector-effect="non-scaling-stroke" d="
  M 91.14 107.90
  Q 90.39 107.24 89.42 107.12
  Q 88.09 106.96 87.66 106.75
  Q 85.91 105.87 84.62 104.49"
/>
<path stroke="#de936f" vector-effect="non-scaling-stroke" d="
  M 82.49 96.47
  Q 83.48 93.17 86.66 89.47"
/>
<path stroke="#eba47e" vector-effect="non-scaling-stroke" d="
  M 82.65 99.78
  Q 82.23 98.18 82.49 96.47"
/>
<path stroke="#cc71b5" vector-effect="non-scaling-stroke" d="
  M 82.49 96.47
  Q 97.58 82.33 111.56 71.62
  Q 112.99 70.53 113.25 69.09"
/>
<path stroke="#dd9822" vector-effect="non-scaling-stroke" d="
  M 85.45 89.58
  Q 85.32 90.72 84.30 91.54
  Q 82.92 92.66 82.65 92.96
  Q 79.32 96.69 75.12 99.89
  Q 73.95 100.79 72.50 102.26
  Q 71.45 103.32 69.88 104.62
  Q 61.44 111.62 49.95 121.98"
/>
<path stroke="#de9f32" vector-effect="non-scaling-stroke" d="
  M 49.95 121.98
  L 40.97 129.98"
/>
<path stroke="#dd9822" vector-effect="non-scaling-stroke" d="
  M 40.97 129.98
  L 9.07 158.18"
/>
<path stroke="#d58c15" vector-effect="non-scaling-stroke" d="
  M 8.94 155.96
  Q 9.99 155.93 10.26 154.91"
/>
<path stroke="#cf800a" vector-effect="non-scaling-stroke" d="
  M 10.26 154.91
  Q 16.15 149.88 22.11 144.74
  Q 22.55 144.36 23.51 143.37
  C 24.66 142.20 26.57 140.91 27.34 140.24
  Q 37.81 131.12 59.39 112.16
  Q 65.12 107.12 68.87 104.24
  Q 70.17 103.23 70.88 102.47
  Q 72.42 100.82 72.69 100.51
  Q 73.44 99.69 75.74 97.94
  Q 79.51 95.05 81.37 91.88
  Q 83.38 88.43 82.94 83.25"
/>
<path stroke="#e196d4" vector-effect="non-scaling-stroke" d="
  M 125.75 69.73
  C 120.57 71.86 117.58 75.89 113.55 79.41
  Q 108.84 83.53 106.30 85.95
  Q 93.81 97.83 88.72 102.31
  Q 87.22 103.63 85.78 105.03"
/>
<path stroke="#d385c6" vector-effect="non-scaling-stroke" d="
  M 85.78 105.03
  L 84.62 104.49"
/>
<path stroke="#f3b88f" vector-effect="non-scaling-stroke" d="
  M 84.62 104.49
  Q 83.20 102.29 82.65 99.78"
/>
<path stroke="#e196d4" vector-effect="non-scaling-stroke" d="
  M 82.65 99.78
  Q 84.50 96.54 87.22 94.00
  Q 98.79 83.21 111.30 73.54
  Q 114.83 70.82 116.31 67.70"
/>
<path stroke="#cc71b5" vector-effect="non-scaling-stroke" d="
  M 125.87 70.09
  Q 120.07 75.31 114.61 80.85
  Q 108.27 87.29 103.31 91.55
  Q 97.21 96.80 91.15 102.10
  Q 89.03 103.96 85.78 105.03"
/>
<path stroke="#864b24" vector-effect="non-scaling-stroke" d="
  M 84.77 80.95
  L 82.94 83.25"
/>
<path stroke="#986223" vector-effect="non-scaling-stroke" d="
  M 82.94 83.25
  L 75.99 90.22"
/>
<path stroke="#9f6d2e" vector-effect="non-scaling-stroke" d="
  M 75.99 90.22
  L 72.49 93.20"
/>
<path stroke="#a6793b" vector-effect="non-scaling-stroke" d="
  M 72.49 93.20
  Q 66.15 97.57 63.75 98.38
  Q 60.22 99.56 56.35 97.07"
/>
<path stroke="#e8a314" vector-effect="non-scaling-stroke" d="
  M 10.26 154.91
  Q 10.64 149.84 13.89 147.36
  Q 32.64 133.06 45.25 121.54
  C 50.36 116.88 54.45 111.07 60.06 106.95
  Q 63.77 104.23 65.93 102.68
  Q 67.18 101.79 72.30 96.56
  Q 75.25 93.55 75.99 90.22"
/>
<path stroke="#f6ba2b" vector-effect="non-scaling-stroke" d="
  M 9.01 147.59
  Q 11.62 144.45 15.57 141.32
  Q 24.28 134.41 31.68 129.70
  Q 34.55 127.88 46.13 117.55
  Q 46.18 117.51 51.85 111.44
  Q 56.50 106.47 62.06 103.09
  C 63.56 102.17 64.71 101.02 65.92 99.84
  C 68.23 97.60 70.88 96.49 72.49 93.20"
/>
<path stroke="#955080" vector-effect="non-scaling-stroke" d="
  M 92.70 63.70
  C 89.32 66.44 86.89 69.75 84.12 73.03
  Q 80.48 77.33 77.80 79.91
  Q 68.29 89.05 57.52 96.76"
/>
<path stroke="#754461" vector-effect="non-scaling-stroke" d="
  M 57.52 96.76
  Q 56.95 96.81 56.35 97.07"
/>
<path stroke="#cc915e" vector-effect="non-scaling-stroke" d="
  M 56.35 97.07
  Q 53.74 97.48 53.16 95.59"
/>
<path stroke="#854272" vector-effect="non-scaling-stroke" d="
  M 92.72 65.31
  Q 79.58 84.82 59.05 97.03"
/>
<path stroke="#6f385d" vector-effect="non-scaling-stroke" d="
  M 59.05 97.03
  L 57.52 96.76"
/>
<path stroke="#653652" vector-effect="non-scaling-stroke" d="
  M 91.59 70.24
  Q 89.15 72.31 85.87 76.87
  Q 82.93 80.97 74.51 89.23
  Q 67.65 95.96 59.05 97.03"
/>
<path stroke="#ac5e95" vector-effect="non-scaling-stroke" d="
  M 92.70 62.20
  Q 91.25 63.42 89.97 64.82
  Q 83.73 71.66 77.71 78.71
  Q 74.81 82.12 66.38 88.60
  C 60.89 92.82 58.75 95.01 53.16 95.59"
/>
<path stroke="#de936f" vector-effect="non-scaling-stroke" d="
  M 53.16 95.59
  Q 53.17 95.48 53.18 95.36"
/>
<path stroke="#fece49" vector-effect="non-scaling-stroke" d="
  M 50.50 92.75
  Q 51.10 95.42 52.79 97.39
  Q 53.12 97.77 52.96 98.24
  C 51.02 103.97 47.97 106.05 42.41 110.72
  Q 36.89 115.36 33.58 117.14
  Q 20.59 124.12 8.99 133.20"
/>
<path stroke="#f7c23c" vector-effect="non-scaling-stroke" d="
  M 9.05 119.34
  Q 15.65 113.88 21.74 107.99
  Q 26.80 103.09 30.63 99.92
  Q 34.05 97.09 39.89 92.24
  Q 39.94 92.20 43.08 89.26
  Q 44.77 87.67 47.25 86.03
  Q 48.66 85.09 48.26 83.75"
/>
<path stroke="#cc71b5" vector-effect="non-scaling-stroke" d="
  M 92.47 60.74
  Q 84.54 67.28 77.97 75.22
  Q 74.11 79.88 61.70 89.72
  Q 57.71 92.88 53.18 95.36"
/>
<path stroke="#eba47e" vector-effect="non-scaling-stroke" d="
  M 53.18 95.36
  Q 52.36 95.09 51.84 94.25"
/>
<path stroke="#e196d4" vector-effect="non-scaling-stroke" d="
  M 91.92 59.46
  Q 86.76 63.81 78.22 71.72
  Q 67.88 81.30 51.84 94.25"
/>
<path stroke="#f3b88f" vector-effect="non-scaling-stroke" d="
  M 51.84 94.25
  L 50.50 92.75"
/>
<path stroke="#f4c09f" vector-effect="non-scaling-stroke" d="
  M 50.50 92.75
  L 49.85 91.24"
/>
<path stroke="#e196d4" vector-effect="non-scaling-stroke" d="
  M 49.85 91.24
  C 51.55 86.63 53.75 84.62 57.51 80.94
  Q 59.85 78.66 63.02 76.12
  Q 73.90 67.43 84.09 57.69"
/>
<path stroke="#ecac8e" vector-effect="non-scaling-stroke" d="
  M 49.85 91.24
  Q 49.20 87.58 50.01 86.05"
/>
<path stroke="#c476ac" vector-effect="non-scaling-stroke" d="
  M 50.01 86.05
  Q 57.36 79.11 64.48 73.12
  Q 65.23 72.50 69.63 68.49
  Q 72.20 66.15 75.08 64.19
  Q 75.73 63.75 76.03 63.40
  Q 77.02 62.26 75.76 62.00"
/>
<path stroke="#d79f77" vector-effect="non-scaling-stroke" d="
  M 50.01 86.05
  Q 52.45 81.05 58.26 76.19"
/>
<path stroke="#e9b4e8" vector-effect="non-scaling-stroke" d="
  M 91.01 58.11
  L 52.75 89.98
  Q 52.67 90.04 52.62 89.96
  L 52.39 89.56
  Q 52.11 89.07 52.48 88.65
  Q 65.32 73.90 81.43 62.71
  Q 83.74 61.10 86.70 57.33"
/>
<path stroke="#e9b4e8" vector-effect="non-scaling-stroke" d="
  M 118.90 68.61
  C 117.41 70.03 115.25 72.10 113.15 73.66
  Q 100.91 82.75 89.74 93.23
  Q 85.09 97.60 84.08 101.16
  Q 83.93 101.65 84.33 101.32
  C 88.04 98.25 92.21 93.85 95.51 90.85
  Q 98.92 87.75 101.91 84.86
  C 106.29 80.63 112.06 76.94 116.05 73.60
  Q 118.54 71.52 119.35 68.89
  Q 119.66 67.89 118.90 68.61"
/>
</g>
<path fill="#ffffff" d="
  M 182.00 0.00
  L 182.00 178.00
  L 0.00 178.00
  L 0.00 0.00
  L 182.00 0.00
  Z
  M 146.26 6.71
  L 141.91 6.72
  A 1.14 1.13 4.8 0 0 140.79 7.66
  Q 139.92 12.73 138.66 19.03
  C 138.31 20.74 138.48 22.65 138.30 23.92
  Q 138.03 25.76 138.84 27.47
  Q 140.01 29.92 142.31 31.61
  L 142.92 32.11
  L 148.29 35.16
  Q 143.54 56.66 138.57 77.88
  Q 138.17 79.57 137.38 80.84
  Q 136.52 82.22 135.54 83.48
  Q 130.80 87.91 129.80 94.31
  Q 129.34 94.95 129.32 96.79
  Q 129.29 98.18 128.45 99.39
  L 127.75 99.94
  Q 122.15 102.28 117.42 106.11
  A 0.42 0.42 0.0 0 1 116.76 105.92
  L 116.64 105.60
  Q 121.02 98.12 117.23 90.88
  Q 123.12 84.69 125.32 76.42
  Q 125.92 75.81 125.86 74.02
  L 125.87 70.09
  Q 125.94 70.01 125.75 69.73
  C 124.75 65.59 119.08 66.15 116.31 67.70
  L 113.25 69.09
  Q 104.95 73.80 97.61 79.85
  Q 95.27 81.78 86.66 89.47
  Q 85.73 89.81 85.45 89.58
  Q 86.15 87.22 85.75 84.99
  Q 85.40 83.01 84.77 80.95
  Q 89.03 76.01 91.59 70.24
  Q 92.70 67.83 92.72 65.31
  Q 92.85 64.33 92.70 63.70
  Q 92.88 62.94 92.70 62.20
  Q 92.72 61.41 92.47 60.74
  Q 92.40 60.08 91.92 59.46
  L 91.01 58.11
  Q 89.54 56.52 86.70 57.33
  Q 85.03 57.12 84.09 57.69
  Q 79.57 59.14 75.76 62.00
  Q 66.01 68.43 58.26 76.19
  Q 52.76 78.93 48.26 83.75
  Q 28.69 100.17 9.25 116.75
  Q 8.60 117.30 9.05 119.34
  L 8.99 133.20
  L 9.01 147.59
  L 8.94 155.96
  L 9.07 158.18
  L 9.01 167.24
  Q 9.01 167.77 9.53 167.77
  L 25.99 167.81
  L 39.79 167.89
  L 48.21 167.91
  L 53.96 167.84
  Q 54.46 167.79 55.02 167.94
  L 94.28 167.93
  L 104.59 167.88
  L 106.73 167.89
  Q 107.24 167.89 107.62 167.54
  Q 116.48 159.09 123.67 149.21
  Q 129.98 140.53 131.63 131.96
  Q 132.42 127.84 130.28 122.64
  Q 131.75 120.75 133.29 118.53
  Q 136.51 113.86 138.21 108.61
  L 138.67 103.97
  C 142.06 100.18 144.90 97.36 146.15 93.01
  Q 147.61 87.45 146.18 81.82
  Q 146.06 81.32 146.30 80.87
  C 146.90 79.75 147.61 78.91 147.99 77.60
  Q 153.72 57.58 159.15 37.57
  L 165.29 37.12
  Q 167.49 37.02 169.05 36.03
  Q 169.48 35.76 169.48 35.25
  L 169.28 21.73
  L 169.59 8.20
  Q 169.71 7.74 169.62 7.38
  Q 169.49 6.83 168.93 6.82
  L 167.23 6.79
  L 157.91 6.62
  L 146.26 6.71
  Z"
/>
<path fill="#f29ae2" d="
  M 157.91 6.62
  Q 156.17 15.52 154.20 24.47
  C 153.25 28.80 152.25 33.30 148.29 35.16
  L 142.92 32.11
  Q 143.76 32.42 144.53 32.37
  Q 145.04 32.34 145.16 31.84
  Q 146.44 26.32 148.30 15.22
  Q 149.10 10.46 147.19 6.85
  Q 146.70 6.95 146.26 6.71
  L 157.91 6.62
  Z"
/>
<path fill="#d982c3" d="
  M 167.23 6.79
  L 160.78 6.99
  Q 160.25 7.01 160.13 7.52
  L 157.35 19.22
  Q 154.66 28.47 152.74 37.87
  Q 149.97 51.49 148.70 56.61
  Q 144.84 72.14 143.65 77.29
  Q 142.41 82.66 141.43 85.03
  C 138.49 92.18 135.07 98.64 130.95 105.23
  Q 129.32 107.84 127.03 109.96
  Q 126.68 110.19 126.21 110.24
  Q 128.42 107.75 129.41 106.18
  Q 134.86 97.48 139.19 87.97
  Q 141.14 83.70 142.16 78.38
  Q 144.69 65.18 149.42 47.35
  Q 150.63 42.80 150.11 38.45
  Q 149.94 36.99 149.56 38.40
  Q 146.80 48.61 145.14 56.76
  Q 142.94 67.52 140.97 74.67
  Q 140.41 76.68 140.29 77.37
  Q 140.03 78.93 139.44 79.94
  Q 134.73 88.00 130.20 97.74
  A 0.44 0.43 47.6 0 1 129.40 97.70
  Q 129.29 97.42 129.32 96.79
  Q 129.34 94.95 129.80 94.31
  Q 131.42 93.77 132.12 91.63
  Q 132.89 89.30 133.38 88.50
  Q 134.78 86.22 136.33 84.01
  A 0.32 0.32 0.0 0 0 136.09 83.51
  L 135.54 83.48
  Q 136.52 82.22 137.38 80.84
  Q 138.17 79.57 138.57 77.88
  Q 143.54 56.66 148.29 35.16
  C 152.25 33.30 153.25 28.80 154.20 24.47
  Q 156.17 15.52 157.91 6.62
  L 167.23 6.79
  Z"
/>
<path fill="#be60a6" d="
  M 146.26 6.71
  Q 146.70 6.95 147.19 6.85
  Q 146.78 12.62 145.32 21.83
  Q 144.43 27.47 142.31 31.61
  Q 140.01 29.92 138.84 27.47
  Q 138.03 25.76 138.30 23.92
  C 138.48 22.65 138.31 20.74 138.66 19.03
  Q 139.92 12.73 140.79 7.66
  A 1.14 1.13 4.8 0 1 141.91 6.72
  L 146.26 6.71
  Z"
/>
<path fill="#d982c3" d="
  M 142.92 32.11
  L 142.31 31.61
  Q 144.43 27.47 145.32 21.83
  Q 146.78 12.62 147.19 6.85
  Q 149.10 10.46 148.30 15.22
  Q 146.44 26.32 145.16 31.84
  Q 145.04 32.34 144.53 32.37
  Q 143.76 32.42 142.92 32.11
  Z"
/>
<path fill="#ae6995" d="
  M 167.23 6.79
  L 168.93 6.82
  Q 169.49 6.83 169.62 7.38
  Q 169.71 7.74 169.59 8.20
  Q 169.22 6.93 167.51 7.34
  A 1.51 1.50 1.6 0 0 166.41 8.37
  L 158.03 36.23
  Q 157.86 36.79 157.31 36.59
  Q 156.52 36.30 155.79 36.39
  Q 155.27 36.46 155.13 36.97
  Q 151.43 50.88 148.00 65.98
  Q 146.83 71.12 143.65 80.84
  Q 146.91 67.14 150.29 53.47
  Q 151.81 47.33 153.29 39.36
  Q 154.62 32.27 156.18 25.23
  Q 156.84 22.23 157.35 19.22
  L 160.13 7.52
  Q 160.25 7.01 160.78 6.99
  L 167.23 6.79
  Z"
/>
<path fill="#9a5c84" d="
  M 169.59 8.20
  L 169.28 21.73
  Q 166.16 25.94 165.35 32.30
  Q 165.02 34.97 165.29 37.12
  L 159.15 37.57
  Q 157.64 37.14 156.01 37.25
  Q 155.47 37.29 155.45 37.83
  C 155.38 39.60 155.20 41.69 154.85 43.20
  Q 152.00 55.37 148.42 67.85
  Q 146.46 74.72 145.38 81.72
  Q 144.31 88.68 142.48 93.10
  Q 139.16 101.14 133.02 107.27
  Q 132.29 107.40 131.78 107.93
  Q 139.23 98.17 143.09 87.93
  Q 144.25 84.87 143.65 80.84
  Q 146.83 71.12 148.00 65.98
  Q 151.43 50.88 155.13 36.97
  Q 155.27 36.46 155.79 36.39
  Q 156.52 36.30 157.31 36.59
  Q 157.86 36.79 158.03 36.23
  L 166.41 8.37
  A 1.51 1.50 1.6 0 1 167.51 7.34
  Q 169.22 6.93 169.59 8.20
  Z"
/>
<path fill="#be60a6" d="
  M 157.35 19.22
  Q 156.84 22.23 156.18 25.23
  Q 154.62 32.27 153.29 39.36
  Q 151.81 47.33 150.29 53.47
  Q 146.91 67.14 143.65 80.84
  Q 144.25 84.87 143.09 87.93
  Q 139.23 98.17 131.78 107.93
  L 127.79 110.02
  Q 127.46 109.92 127.03 109.96
  Q 129.32 107.84 130.95 105.23
  C 135.07 98.64 138.49 92.18 141.43 85.03
  Q 142.41 82.66 143.65 77.29
  Q 144.84 72.14 148.70 56.61
  Q 149.97 51.49 152.74 37.87
  Q 154.66 28.47 157.35 19.22
  Z"
/>
<path fill="#8f447c" d="
  M 169.28 21.73
  L 169.48 35.25
  Q 169.48 35.76 169.05 36.03
  Q 167.49 37.02 165.29 37.12
  Q 165.02 34.97 165.35 32.30
  Q 166.16 25.94 169.28 21.73
  Z"
/>
<path fill="#7b3f67" d="
  M 159.15 37.57
  Q 153.72 57.58 147.99 77.60
  C 147.61 78.91 146.90 79.75 146.30 80.87
  Q 146.06 81.32 146.18 81.82
  Q 147.61 87.45 146.15 93.01
  L 145.89 86.93
  Q 145.82 85.26 145.53 86.90
  C 144.50 92.70 141.39 98.38 137.67 103.62
  Q 137.58 103.74 137.60 103.89
  Q 137.63 104.15 137.74 104.21
  A 0.36 0.35 38.8 0 0 138.13 104.17
  Q 138.40 103.94 138.67 103.97
  L 138.21 108.61
  L 137.96 108.10
  Q 137.63 107.45 137.23 108.06
  L 136.97 108.46
  L 137.12 106.64
  A 0.43 0.43 0.0 0 0 136.45 106.25
  Q 134.49 107.53 132.51 108.88
  Q 132.21 109.09 131.99 108.94
  Q 131.57 108.65 131.94 108.30
  L 133.02 107.27
  Q 139.16 101.14 142.48 93.10
  Q 144.31 88.68 145.38 81.72
  Q 146.46 74.72 148.42 67.85
  Q 152.00 55.37 154.85 43.20
  C 155.20 41.69 155.38 39.60 155.45 37.83
  Q 155.47 37.29 156.01 37.25
  Q 157.64 37.14 159.15 37.57
  Z"
/>
<path fill="#f29ae2" d="
  M 126.21 110.24
  L 124.28 110.88
  L 123.13 110.90
  Q 122.54 110.90 122.70 110.33
  Q 122.83 109.86 123.29 109.48
  Q 128.44 106.10 128.99 99.99
  Q 129.01 99.72 128.88 99.59
  Q 128.72 99.44 128.45 99.39
  Q 129.29 98.18 129.32 96.79
  Q 129.29 97.42 129.40 97.70
  A 0.44 0.43 47.6 0 0 130.20 97.74
  Q 134.73 88.00 139.44 79.94
  Q 140.03 78.93 140.29 77.37
  Q 140.41 76.68 140.97 74.67
  Q 142.94 67.52 145.14 56.76
  Q 146.80 48.61 149.56 38.40
  Q 149.94 36.99 150.11 38.45
  Q 150.63 42.80 149.42 47.35
  Q 144.69 65.18 142.16 78.38
  Q 141.14 83.70 139.19 87.97
  Q 134.86 97.48 129.41 106.18
  Q 128.42 107.75 126.21 110.24
  Z"
/>
<path fill="#eabeeb" d="
  M 91.01 58.11
  L 52.75 89.98
  Q 52.67 90.04 52.62 89.96
  L 52.39 89.56
  Q 52.11 89.07 52.48 88.65
  Q 65.32 73.90 81.43 62.71
  Q 83.74 61.10 86.70 57.33
  Q 89.54 56.52 91.01 58.11
  Z"
/>
<path fill="#e8aae5" d="
  M 86.70 57.33
  Q 83.74 61.10 81.43 62.71
  Q 65.32 73.90 52.48 88.65
  Q 52.11 89.07 52.39 89.56
  L 52.62 89.96
  Q 52.67 90.04 52.75 89.98
  L 91.01 58.11
  L 91.92 59.46
  Q 86.76 63.81 78.22 71.72
  Q 67.88 81.30 51.84 94.25
  L 50.50 92.75
  L 49.85 91.24
  C 51.55 86.63 53.75 84.62 57.51 80.94
  Q 59.85 78.66 63.02 76.12
  Q 73.90 67.43 84.09 57.69
  Q 85.03 57.12 86.70 57.33
  Z"
/>
<path fill="#d982c3" d="
  M 84.09 57.69
  Q 73.90 67.43 63.02 76.12
  Q 59.85 78.66 57.51 80.94
  C 53.75 84.62 51.55 86.63 49.85 91.24
  Q 49.20 87.58 50.01 86.05
  Q 57.36 79.11 64.48 73.12
  Q 65.23 72.50 69.63 68.49
  Q 72.20 66.15 75.08 64.19
  Q 75.73 63.75 76.03 63.40
  Q 77.02 62.26 75.76 62.00
  Q 79.57 59.14 84.09 57.69
  Z"
/>
<path fill="#d982c3" d="
  M 91.92 59.46
  Q 92.40 60.08 92.47 60.74
  Q 84.54 67.28 77.97 75.22
  Q 74.11 79.88 61.70 89.72
  Q 57.71 92.88 53.18 95.36
  Q 52.36 95.09 51.84 94.25
  Q 67.88 81.30 78.22 71.72
  Q 86.76 63.81 91.92 59.46
  Z"
/>
<path fill="#be60a6" d="
  M 92.47 60.74
  Q 92.72 61.41 92.70 62.20
  Q 91.25 63.42 89.97 64.82
  Q 83.73 71.66 77.71 78.71
  Q 74.81 82.12 66.38 88.60
  C 60.89 92.82 58.75 95.01 53.16 95.59
  Q 53.17 95.48 53.18 95.36
  Q 57.71 92.88 61.70 89.72
  Q 74.11 79.88 77.97 75.22
  Q 84.54 67.28 92.47 60.74
  Z"
/>
<path fill="#ae6995" d="
  M 75.76 62.00
  Q 77.02 62.26 76.03 63.40
  Q 75.73 63.75 75.08 64.19
  Q 72.20 66.15 69.63 68.49
  Q 65.23 72.50 64.48 73.12
  Q 57.36 79.11 50.01 86.05
  Q 52.45 81.05 58.26 76.19
  Q 66.01 68.43 75.76 62.00
  Z"
/>
<path fill="#9a5c84" d="
  M 92.70 62.20
  Q 92.88 62.94 92.70 63.70
  C 89.32 66.44 86.89 69.75 84.12 73.03
  Q 80.48 77.33 77.80 79.91
  Q 68.29 89.05 57.52 96.76
  Q 56.95 96.81 56.35 97.07
  Q 53.74 97.48 53.16 95.59
  C 58.75 95.01 60.89 92.82 66.38 88.60
  Q 74.81 82.12 77.71 78.71
  Q 83.73 71.66 89.97 64.82
  Q 91.25 63.42 92.70 62.20
  Z"
/>
<path fill="#8f447c" d="
  M 92.70 63.70
  Q 92.85 64.33 92.72 65.31
  Q 79.58 84.82 59.05 97.03
  L 57.52 96.76
  Q 68.29 89.05 77.80 79.91
  Q 80.48 77.33 84.12 73.03
  C 86.89 69.75 89.32 66.44 92.70 63.70
  Z"
/>
<path fill="#7b3f67" d="
  M 92.72 65.31
  Q 92.70 67.83 91.59 70.24
  Q 89.15 72.31 85.87 76.87
  Q 82.93 80.97 74.51 89.23
  Q 67.65 95.96 59.05 97.03
  Q 79.58 84.82 92.72 65.31
  Z"
/>
<path fill="#e8aae5" d="
  M 125.75 69.73
  C 120.57 71.86 117.58 75.89 113.55 79.41
  Q 108.84 83.53 106.30 85.95
  Q 93.81 97.83 88.72 102.31
  Q 87.22 103.63 85.78 105.03
  L 84.62 104.49
  Q 83.20 102.29 82.65 99.78
  Q 84.50 96.54 87.22 94.00
  Q 98.79 83.21 111.30 73.54
  Q 114.83 70.82 116.31 67.70
  C 119.08 66.15 124.75 65.59 125.75 69.73
  Z
  M 118.90 68.61
  C 117.41 70.03 115.25 72.10 113.15 73.66
  Q 100.91 82.75 89.74 93.23
  Q 85.09 97.60 84.08 101.16
  Q 83.93 101.65 84.33 101.32
  C 88.04 98.25 92.21 93.85 95.51 90.85
  Q 98.92 87.75 101.91 84.86
  C 106.29 80.63 112.06 76.94 116.05 73.60
  Q 118.54 71.52 119.35 68.89
  Q 119.66 67.89 118.90 68.61
  Z"
/>
<path fill="#d982c3" d="
  M 116.31 67.70
  Q 114.83 70.82 111.30 73.54
  Q 98.79 83.21 87.22 94.00
  Q 84.50 96.54 82.65 99.78
  Q 82.23 98.18 82.49 96.47
  Q 97.58 82.33 111.56 71.62
  Q 112.99 70.53 113.25 69.09
  L 116.31 67.70
  Z"
/>
<path fill="#eabeeb" d="
  M 118.90 68.61
  Q 119.66 67.89 119.35 68.89
  Q 118.54 71.52 116.05 73.60
  C 112.06 76.94 106.29 80.63 101.91 84.86
  Q 98.92 87.75 95.51 90.85
  C 92.21 93.85 88.04 98.25 84.33 101.32
  Q 83.93 101.65 84.08 101.16
  Q 85.09 97.60 89.74 93.23
  Q 100.91 82.75 113.15 73.66
  C 115.25 72.10 117.41 70.03 118.90 68.61
  Z"
/>
<path fill="#be60a6" d="
  M 113.25 69.09
  Q 112.99 70.53 111.56 71.62
  Q 97.58 82.33 82.49 96.47
  Q 83.48 93.17 86.66 89.47
  Q 95.27 81.78 97.61 79.85
  Q 104.95 73.80 113.25 69.09
  Z"
/>
<path fill="#d982c3" d="
  M 125.75 69.73
  Q 125.94 70.01 125.87 70.09
  Q 120.07 75.31 114.61 80.85
  Q 108.27 87.29 103.31 91.55
  Q 97.21 96.80 91.15 102.10
  Q 89.03 103.96 85.78 105.03
  Q 87.22 103.63 88.72 102.31
  Q 93.81 97.83 106.30 85.95
  Q 108.84 83.53 113.55 79.41
  C 117.58 75.89 120.57 71.86 125.75 69.73
  Z"
/>
<path fill="#4f2c3d" d="
  M 91.59 70.24
  Q 89.03 76.01 84.77 80.95
  L 82.94 83.25
  L 75.99 90.22
  L 72.49 93.20
  Q 66.15 97.57 63.75 98.38
  Q 60.22 99.56 56.35 97.07
  Q 56.95 96.81 57.52 96.76
  L 59.05 97.03
  Q 67.65 95.96 74.51 89.23
  Q 82.93 80.97 85.87 76.87
  Q 89.15 72.31 91.59 70.24
  Z"
/>
<path fill="#be60a6" d="
  M 125.87 70.09
  L 125.86 74.02
  Q 124.75 73.24 123.70 74.42
  Q 111.51 88.15 108.03 91.53
  Q 99.84 99.50 91.31 107.26
  Q 91.35 107.40 91.14 107.90
  Q 90.39 107.24 89.42 107.12
  Q 88.09 106.96 87.66 106.75
  Q 85.91 105.87 84.62 104.49
  L 85.78 105.03
  Q 89.03 103.96 91.15 102.10
  Q 97.21 96.80 103.31 91.55
  Q 108.27 87.29 114.61 80.85
  Q 120.07 75.31 125.87 70.09
  Z"
/>
<path fill="#8f447c" d="
  M 125.86 74.02
  Q 125.92 75.81 125.32 76.42
  Q 116.10 89.14 101.61 102.10
  Q 96.54 106.63 91.31 107.26
  Q 99.84 99.50 108.03 91.53
  Q 111.51 88.15 123.70 74.42
  Q 124.75 73.24 125.86 74.02
  Z"
/>
<path fill="#7b3f67" d="
  M 125.32 76.42
  Q 123.12 84.69 117.23 90.88
  L 116.21 92.32
  L 110.31 98.73
  Q 105.13 103.16 102.98 104.72
  Q 100.71 106.37 97.36 107.75
  Q 93.94 108.79 91.14 107.90
  Q 91.35 107.40 91.31 107.26
  Q 96.54 106.63 101.61 102.10
  Q 116.10 89.14 125.32 76.42
  Z"
/>
<path fill="#ffd559" d="
  M 58.26 76.19
  Q 52.45 81.05 50.01 86.05
  Q 49.20 87.58 49.85 91.24
  L 50.50 92.75
  Q 51.10 95.42 52.79 97.39
  Q 53.12 97.77 52.96 98.24
  C 51.02 103.97 47.97 106.05 42.41 110.72
  Q 36.89 115.36 33.58 117.14
  Q 20.59 124.12 8.99 133.20
  L 9.05 119.34
  Q 15.65 113.88 21.74 107.99
  Q 26.80 103.09 30.63 99.92
  Q 34.05 97.09 39.89 92.24
  Q 39.94 92.20 43.08 89.26
  Q 44.77 87.67 47.25 86.03
  Q 48.66 85.09 48.26 83.75
  Q 52.76 78.93 58.26 76.19
  Z"
/>
<path fill="#bc690b" d="
  M 84.77 80.95
  Q 85.40 83.01 85.75 84.99
  Q 86.15 87.22 85.45 89.58
  Q 85.32 90.72 84.30 91.54
  Q 82.92 92.66 82.65 92.96
  Q 79.32 96.69 75.12 99.89
  Q 73.95 100.79 72.50 102.26
  Q 71.45 103.32 69.88 104.62
  Q 61.44 111.62 49.95 121.98
  L 40.97 129.98
  L 9.07 158.18
  L 8.94 155.96
  Q 9.99 155.93 10.26 154.91
  Q 16.15 149.88 22.11 144.74
  Q 22.55 144.36 23.51 143.37
  C 24.66 142.20 26.57 140.91 27.34 140.24
  Q 37.81 131.12 59.39 112.16
  Q 65.12 107.12 68.87 104.24
  Q 70.17 103.23 70.88 102.47
  Q 72.42 100.82 72.69 100.51
  Q 73.44 99.69 75.74 97.94
  Q 79.51 95.05 81.37 91.88
  Q 83.38 88.43 82.94 83.25
  L 84.77 80.95
  Z"
/>
<path fill="#e19709" d="
  M 82.94 83.25
  Q 83.38 88.43 81.37 91.88
  Q 79.51 95.05 75.74 97.94
  Q 73.44 99.69 72.69 100.51
  Q 72.42 100.82 70.88 102.47
  Q 70.17 103.23 68.87 104.24
  Q 65.12 107.12 59.39 112.16
  Q 37.81 131.12 27.34 140.24
  C 26.57 140.91 24.66 142.20 23.51 143.37
  Q 22.55 144.36 22.11 144.74
  Q 16.15 149.88 10.26 154.91
  Q 10.64 149.84 13.89 147.36
  Q 32.64 133.06 45.25 121.54
  C 50.36 116.88 54.45 111.07 60.06 106.95
  Q 63.77 104.23 65.93 102.68
  Q 67.18 101.79 72.30 96.56
  Q 75.25 93.55 75.99 90.22
  L 82.94 83.25
  Z"
/>
<path fill="#9a5c84" d="
  M 135.54 83.48
  L 136.09 83.51
  A 0.32 0.32 0.0 0 1 136.33 84.01
  Q 134.78 86.22 133.38 88.50
  Q 132.89 89.30 132.12 91.63
  Q 131.42 93.77 129.80 94.31
  Q 130.80 87.91 135.54 83.48
  Z"
/>
<path fill="#eeae1e" d="
  M 48.26 83.75
  Q 48.66 85.09 47.25 86.03
  Q 44.77 87.67 43.08 89.26
  Q 39.94 92.20 39.89 92.24
  Q 34.05 97.09 30.63 99.92
  Q 26.80 103.09 21.74 107.99
  Q 15.65 113.88 9.05 119.34
  Q 8.60 117.30 9.25 116.75
  Q 28.69 100.17 48.26 83.75
  Z"
/>
<path fill="#4f2c3d" d="
  M 146.15 93.01
  C 144.90 97.36 142.06 100.18 138.67 103.97
  Q 138.40 103.94 138.13 104.17
  A 0.36 0.35 38.8 0 1 137.74 104.21
  Q 137.63 104.15 137.60 103.89
  Q 137.58 103.74 137.67 103.62
  C 141.39 98.38 144.50 92.70 145.53 86.90
  Q 145.82 85.26 145.89 86.93
  L 146.15 93.01
  Z"
/>
<path fill="#fdc638" d="
  M 85.45 89.58
  Q 85.73 89.81 86.66 89.47
  Q 83.48 93.17 82.49 96.47
  Q 82.23 98.18 82.65 99.78
  Q 83.20 102.29 84.62 104.49
  Q 85.91 105.87 87.66 106.75
  Q 88.09 106.96 89.42 107.12
  Q 90.39 107.24 91.14 107.90
  Q 93.94 108.79 97.36 107.75
  Q 98.05 108.69 96.26 108.35
  Q 96.10 108.32 96.06 108.48
  L 95.97 108.76
  A 0.09 0.09 0.0 0 0 96.06 108.88
  Q 97.60 108.77 98.71 109.30
  Q 99.17 109.52 99.58 109.21
  Q 100.00 108.88 100.61 108.85
  Q 101.18 108.82 100.86 109.30
  Q 99.01 112.03 97.83 112.58
  C 93.73 114.49 90.75 115.63 88.84 118.52
  Q 87.11 121.15 80.99 128.00
  Q 79.73 129.41 75.39 135.39
  Q 73.25 138.34 68.02 142.73
  Q 64.18 145.95 59.57 148.70
  C 52.76 152.75 46.64 156.82 39.36 159.87
  C 34.51 161.90 29.17 163.23 25.99 167.81
  L 9.53 167.77
  Q 9.01 167.77 9.01 167.24
  L 9.07 158.18
  L 40.97 129.98
  Q 36.18 135.29 31.73 140.80
  Q 27.50 146.02 25.80 147.54
  Q 21.25 151.62 21.36 157.21
  Q 21.39 158.69 22.63 157.88
  Q 25.07 156.27 31.07 152.65
  C 38.72 148.02 45.97 142.86 52.80 138.74
  C 62.92 132.64 72.87 124.62 79.98 117.74
  Q 84.11 113.75 84.69 107.61
  Q 84.74 107.09 84.49 106.70
  L 80.40 100.54
  Q 79.90 99.78 79.14 100.21
  Q 73.45 103.43 68.10 107.43
  Q 67.24 108.07 59.22 114.92
  Q 54.78 118.71 49.95 121.98
  Q 61.44 111.62 69.88 104.62
  Q 71.45 103.32 72.50 102.26
  Q 73.95 100.79 75.12 99.89
  Q 79.32 96.69 82.65 92.96
  Q 82.92 92.66 84.30 91.54
  Q 85.32 90.72 85.45 89.58
  Z"
/>
<path fill="#eeae1e" d="
  M 75.99 90.22
  Q 75.25 93.55 72.30 96.56
  Q 67.18 101.79 65.93 102.68
  Q 63.77 104.23 60.06 106.95
  C 54.45 111.07 50.36 116.88 45.25 121.54
  Q 32.64 133.06 13.89 147.36
  Q 10.64 149.84 10.26 154.91
  Q 9.99 155.93 8.94 155.96
  L 9.01 147.59
  Q 11.62 144.45 15.57 141.32
  Q 24.28 134.41 31.68 129.70
  Q 34.55 127.88 46.13 117.55
  Q 46.18 117.51 51.85 111.44
  Q 56.50 106.47 62.06 103.09
  C 63.56 102.17 64.71 101.02 65.92 99.84
  C 68.23 97.60 70.88 96.49 72.49 93.20
  L 75.99 90.22
  Z"
/>
<path fill="#bc690b" d="
  M 117.23 90.88
  Q 121.02 98.12 116.64 105.60
  Q 116.59 105.87 116.23 106.03
  Q 112.36 109.30 108.45 112.52
  Q 107.20 113.56 106.98 113.86
  Q 106.38 114.72 105.55 115.25
  Q 104.45 115.96 103.28 117.13
  Q 100.87 119.54 97.93 122.28
  Q 97.29 122.88 97.13 123.60
  Q 96.94 124.50 97.20 125.24
  L 96.39 126.48
  Q 95.51 125.46 94.36 127.37
  Q 93.70 126.68 92.97 126.45
  Q 95.28 121.64 96.75 120.25
  C 102.85 114.52 109.18 108.91 114.22 102.21
  Q 117.73 97.54 116.21 92.32
  L 117.23 90.88
  Z"
/>
<path fill="#e19709" d="
  M 116.21 92.32
  Q 117.73 97.54 114.22 102.21
  C 109.18 108.91 102.85 114.52 96.75 120.25
  Q 95.28 121.64 92.97 126.45
  Q 85.45 134.70 77.16 142.16
  Q 63.23 154.68 48.58 166.35
  Q 48.18 166.67 48.38 167.99
  Q 48.29 167.95 48.21 167.91
  L 39.79 167.89
  Q 41.74 164.80 43.79 163.67
  Q 49.73 160.39 53.36 157.35
  Q 59.96 151.83 66.54 146.28
  Q 73.38 140.51 87.90 122.64
  Q 91.26 118.52 93.60 117.31
  Q 100.86 113.57 105.62 107.44
  Q 106.08 106.84 105.90 106.37
  Q 105.68 105.77 105.12 106.09
  L 102.96 107.35
  Q 102.88 107.39 102.79 107.36
  L 102.53 107.29
  A 0.24 0.24 0.0 0 1 102.48 106.86
  Q 107.66 103.87 110.31 98.73
  L 116.21 92.32
  Z"
/>
<path fill="#fdc638" d="
  M 51.84 94.25
  Q 52.36 95.09 53.18 95.36
  Q 53.17 95.48 53.16 95.59
  Q 53.74 97.48 56.35 97.07
  Q 60.22 99.56 63.75 98.38
  Q 66.15 97.57 72.49 93.20
  C 70.88 96.49 68.23 97.60 65.92 99.84
  C 64.71 101.02 63.56 102.17 62.06 103.09
  Q 56.50 106.47 51.85 111.44
  Q 46.18 117.51 46.13 117.55
  Q 34.55 127.88 31.68 129.70
  Q 24.28 134.41 15.57 141.32
  Q 11.62 144.45 9.01 147.59
  L 8.99 133.20
  Q 20.59 124.12 33.58 117.14
  Q 36.89 115.36 42.41 110.72
  C 47.97 106.05 51.02 103.97 52.96 98.24
  Q 53.12 97.77 52.79 97.39
  Q 51.10 95.42 50.50 92.75
  L 51.84 94.25
  Z"
/>
<path fill="#eeae1e" d="
  M 110.31 98.73
  Q 107.66 103.87 102.48 106.86
  A 0.24 0.24 0.0 0 0 102.53 107.29
  L 102.79 107.36
  Q 102.88 107.39 102.96 107.35
  L 105.12 106.09
  Q 105.68 105.77 105.90 106.37
  Q 106.08 106.84 105.62 107.44
  Q 100.86 113.57 93.60 117.31
  Q 91.26 118.52 87.90 122.64
  Q 73.38 140.51 66.54 146.28
  Q 59.96 151.83 53.36 157.35
  Q 49.73 160.39 43.79 163.67
  Q 41.74 164.80 39.79 167.89
  L 25.99 167.81
  C 29.17 163.23 34.51 161.90 39.36 159.87
  C 46.64 156.82 52.76 152.75 59.57 148.70
  Q 64.18 145.95 68.02 142.73
  Q 73.25 138.34 75.39 135.39
  Q 79.73 129.41 80.99 128.00
  Q 87.11 121.15 88.84 118.52
  C 90.75 115.63 93.73 114.49 97.83 112.58
  Q 99.01 112.03 100.86 109.30
  Q 101.18 108.82 100.61 108.85
  Q 100.00 108.88 99.58 109.21
  Q 99.17 109.52 98.71 109.30
  Q 97.60 108.77 96.06 108.88
  A 0.09 0.09 0.0 0 1 95.97 108.76
  L 96.06 108.48
  Q 96.10 108.32 96.26 108.35
  Q 98.05 108.69 97.36 107.75
  Q 100.71 106.37 102.98 104.72
  Q 105.13 103.16 110.31 98.73
  Z"
/>
<path fill="#d982c3" d="
  M 128.45 99.39
  Q 128.72 99.44 128.88 99.59
  Q 129.01 99.72 128.99 99.99
  Q 128.44 106.10 123.29 109.48
  Q 123.25 108.86 122.44 108.89
  Q 125.30 106.78 126.85 103.65
  Q 126.93 103.48 126.83 103.32
  Q 126.73 103.18 126.57 103.12
  Q 126.32 103.03 126.12 103.21
  C 122.10 106.94 116.24 111.07 112.03 114.87
  Q 108.74 117.84 106.08 120.58
  Q 101.62 125.20 96.95 128.41
  Q 96.54 128.70 96.44 129.19
  Q 96.23 130.20 96.73 131.46
  Q 95.42 129.22 96.37 127.22
  Q 99.38 124.94 102.34 122.61
  Q 103.26 121.89 104.26 120.58
  Q 105.12 119.45 106.15 118.48
  Q 108.99 115.82 109.06 115.74
  Q 110.73 113.83 116.83 108.56
  Q 122.84 103.37 128.29 100.56
  Q 128.94 100.23 128.23 100.06
  L 127.75 99.94
  L 128.45 99.39
  Z"
/>
<path fill="#ffd559" d="
  M 40.97 129.98
  L 49.95 121.98
  Q 54.78 118.71 59.22 114.92
  Q 67.24 108.07 68.10 107.43
  Q 73.45 103.43 79.14 100.21
  Q 79.90 99.78 80.40 100.54
  L 84.49 106.70
  Q 84.74 107.09 84.69 107.61
  Q 84.11 113.75 79.98 117.74
  C 72.87 124.62 62.92 132.64 52.80 138.74
  C 45.97 142.86 38.72 148.02 31.07 152.65
  Q 25.07 156.27 22.63 157.88
  Q 21.39 158.69 21.36 157.21
  Q 21.25 151.62 25.80 147.54
  Q 27.50 146.02 31.73 140.80
  Q 36.18 135.29 40.97 129.98
  Z"
/>
<path fill="#9a5c84" d="
  M 127.75 99.94
  L 128.23 100.06
  Q 128.94 100.23 128.29 100.56
  Q 122.84 103.37 116.83 108.56
  Q 110.73 113.83 109.06 115.74
  Q 108.99 115.82 106.15 118.48
  Q 105.12 119.45 104.26 120.58
  Q 103.26 121.89 102.34 122.61
  Q 99.38 124.94 96.37 127.22
  Q 96.32 126.78 96.39 126.48
  L 97.20 125.24
  C 98.03 124.49 98.29 123.41 99.01 122.64
  Q 106.81 114.24 115.05 108.27
  Q 116.27 107.39 116.23 106.03
  Q 116.59 105.87 116.64 105.60
  L 116.76 105.92
  A 0.42 0.42 0.0 0 0 117.42 106.11
  Q 122.15 102.28 127.75 99.94
  Z"
/>
<path fill="#e8aae5" d="
  M 122.44 108.89
  L 119.39 110.90
  A 0.67 0.67 0.0 0 0 119.52 112.09
  Q 120.30 112.39 121.44 112.37
  Q 120.11 115.48 117.67 117.94
  Q 115.12 120.51 112.31 122.79
  Q 105.26 128.52 99.31 135.35
  Q 97.26 133.67 96.73 131.46
  Q 96.23 130.20 96.44 129.19
  Q 96.54 128.70 96.95 128.41
  Q 101.62 125.20 106.08 120.58
  Q 108.74 117.84 112.03 114.87
  C 116.24 111.07 122.10 106.94 126.12 103.21
  Q 126.32 103.03 126.57 103.12
  Q 126.73 103.18 126.83 103.32
  Q 126.93 103.48 126.85 103.65
  Q 125.30 106.78 122.44 108.89
  Z"
/>
<path fill="#7b3f67" d="
  M 116.23 106.03
  Q 116.27 107.39 115.05 108.27
  Q 106.81 114.24 99.01 122.64
  C 98.29 123.41 98.03 124.49 97.20 125.24
  Q 96.94 124.50 97.13 123.60
  Q 97.29 122.88 97.93 122.28
  Q 100.87 119.54 103.28 117.13
  Q 104.45 115.96 105.55 115.25
  Q 106.38 114.72 106.98 113.86
  Q 107.20 113.56 108.45 112.52
  Q 112.36 109.30 116.23 106.03
  Z"
/>
<path fill="#8f447c" d="
  M 136.97 108.46
  Q 135.46 112.36 133.52 115.26
  Q 128.37 122.99 120.76 130.50
  Q 119.09 132.15 117.31 133.15
  Q 115.50 134.16 113.65 135.40
  Q 110.33 137.64 106.23 138.32
  Q 115.19 130.36 123.40 121.89
  Q 126.49 118.70 129.21 114.83
  Q 130.22 113.40 130.52 112.07
  Q 130.65 111.53 130.26 111.15
  Q 129.29 110.18 127.79 110.02
  L 131.78 107.93
  Q 132.29 107.40 133.02 107.27
  L 131.94 108.30
  Q 131.57 108.65 131.99 108.94
  Q 132.21 109.09 132.51 108.88
  Q 134.49 107.53 136.45 106.25
  A 0.43 0.43 0.0 0 1 137.12 106.64
  L 136.97 108.46
  Z"
/>
<path fill="#4f2c3d" d="
  M 138.21 108.61
  Q 136.51 113.86 133.29 118.53
  Q 131.75 120.75 130.28 122.64
  L 123.94 129.68
  L 116.53 135.64
  Q 115.27 135.36 114.79 135.98
  Q 114.50 136.36 114.05 136.50
  Q 112.30 137.03 110.81 138.07
  Q 109.57 138.93 106.05 138.44
  Q 106.14 138.38 106.23 138.32
  Q 110.33 137.64 113.65 135.40
  Q 115.50 134.16 117.31 133.15
  Q 119.09 132.15 120.76 130.50
  Q 128.37 122.99 133.52 115.26
  Q 135.46 112.36 136.97 108.46
  L 137.23 108.06
  Q 137.63 107.45 137.96 108.10
  L 138.21 108.61
  Z"
/>
<path fill="#be60a6" d="
  M 122.44 108.89
  Q 123.25 108.86 123.29 109.48
  Q 122.83 109.86 122.70 110.33
  Q 122.54 110.90 123.13 110.90
  L 124.28 110.88
  Q 123.63 110.98 123.32 111.21
  Q 122.82 111.57 123.37 111.85
  C 125.95 113.16 125.94 115.39 124.26 117.57
  Q 118.62 124.91 116.10 127.34
  Q 110.50 132.72 105.00 138.22
  Q 103.94 138.26 103.21 137.52
  Q 105.75 134.58 112.61 127.81
  Q 115.46 124.99 122.21 117.24
  Q 124.44 114.68 121.44 112.37
  Q 120.30 112.39 119.52 112.09
  A 0.67 0.67 0.0 0 1 119.39 110.90
  L 122.44 108.89
  Z"
/>
<path fill="#ae6995" d="
  M 127.79 110.02
  Q 129.29 110.18 130.26 111.15
  Q 130.65 111.53 130.52 112.07
  Q 130.22 113.40 129.21 114.83
  Q 126.49 118.70 123.40 121.89
  Q 115.19 130.36 106.23 138.32
  Q 106.14 138.38 106.05 138.44
  L 105.00 138.22
  Q 110.50 132.72 116.10 127.34
  Q 118.62 124.91 124.26 117.57
  C 125.94 115.39 125.95 113.16 123.37 111.85
  Q 122.82 111.57 123.32 111.21
  Q 123.63 110.98 124.28 110.88
  L 126.21 110.24
  Q 126.68 110.19 127.03 109.96
  Q 127.46 109.92 127.79 110.02
  Z"
/>
<path fill="#d982c3" d="
  M 103.21 137.52
  Q 100.77 137.19 99.31 135.35
  Q 105.26 128.52 112.31 122.79
  Q 115.12 120.51 117.67 117.94
  Q 120.11 115.48 121.44 112.37
  Q 124.44 114.68 122.21 117.24
  Q 115.46 124.99 112.61 127.81
  Q 105.75 134.58 103.21 137.52
  Z"
/>
<path fill="#e19709" d="
  M 130.28 122.64
  Q 132.42 127.84 131.63 131.96
  Q 129.98 140.53 123.67 149.21
  Q 116.48 159.09 107.62 167.54
  Q 107.24 167.89 106.73 167.89
  L 104.59 167.88
  Q 110.07 158.62 116.95 150.58
  Q 119.92 147.10 120.82 145.35
  C 123.22 140.72 123.57 134.89 123.94 129.68
  L 130.28 122.64
  Z"
/>
<path fill="#eeae1e" d="
  M 96.39 126.48
  Q 96.32 126.78 96.37 127.22
  Q 95.42 129.22 96.73 131.46
  Q 97.26 133.67 99.31 135.35
  Q 100.77 137.19 103.21 137.52
  Q 103.94 138.26 105.00 138.22
  L 106.05 138.44
  Q 109.57 138.93 110.81 138.07
  Q 112.30 137.03 114.05 136.50
  Q 114.50 136.36 114.79 135.98
  Q 115.27 135.36 116.53 135.64
  Q 112.91 138.05 108.72 139.50
  Q 107.37 139.97 105.78 139.64
  Q 103.90 139.25 102.77 139.18
  Q 98.29 136.29 95.86 133.17
  A 1.60 1.60 0.0 0 0 93.67 132.86
  Q 86.88 137.73 80.36 143.62
  Q 74.13 149.25 67.96 154.95
  Q 59.28 162.34 57.06 164.32
  Q 55.73 165.50 53.96 167.84
  L 48.21 167.91
  Q 48.29 167.95 48.38 167.99
  Q 50.49 167.61 52.15 166.01
  Q 54.45 163.80 54.55 163.71
  Q 75.64 146.82 94.36 127.37
  Q 95.51 125.46 96.39 126.48
  Z"
/>
<path fill="#983f02" d="
  M 92.97 126.45
  Q 93.70 126.68 94.36 127.37
  Q 75.64 146.82 54.55 163.71
  Q 54.45 163.80 52.15 166.01
  Q 50.49 167.61 48.38 167.99
  Q 48.18 166.67 48.58 166.35
  Q 63.23 154.68 77.16 142.16
  Q 85.45 134.70 92.97 126.45
  Z"
/>
<path fill="#fdc638" d="
  M 123.94 129.68
  C 123.57 134.89 123.22 140.72 120.82 145.35
  Q 119.92 147.10 116.95 150.58
  Q 110.07 158.62 104.59 167.88
  L 94.28 167.93
  Q 95.60 164.53 96.14 163.71
  Q 100.82 156.63 102.54 153.32
  Q 107.01 144.70 102.77 139.18
  Q 103.90 139.25 105.78 139.64
  Q 107.37 139.97 108.72 139.50
  Q 112.91 138.05 116.53 135.64
  L 123.94 129.68
  Z"
/>
<path fill="#ffd559" d="
  M 102.77 139.18
  Q 107.01 144.70 102.54 153.32
  Q 100.82 156.63 96.14 163.71
  Q 95.60 164.53 94.28 167.93
  L 55.02 167.94
  Q 62.02 162.05 67.96 154.95
  Q 74.13 149.25 80.36 143.62
  Q 86.88 137.73 93.67 132.86
  A 1.60 1.60 0.0 0 1 95.86 133.17
  Q 98.29 136.29 102.77 139.18
  Z"
/>
<path fill="#fdc638" d="
  M 67.96 154.95
  Q 62.02 162.05 55.02 167.94
  Q 54.46 167.79 53.96 167.84
  Q 55.73 165.50 57.06 164.32
  Q 59.28 162.34 67.96 154.95
  Z"
/>
</svg>
